<?xml version="1.0" standalone="no"?>
<!DOCTYPE svg PUBLIC "-//W3C//DTD SVG 20010904//EN"
 "http://www.w3.org/TR/2001/REC-SVG-20010904/DTD/svg10.dtd">
<svg version="1.0" xmlns="http://www.w3.org/2000/svg"
 width="360.000000pt" height="360.000000pt" viewBox="0 0 360.000000 360.000000"
 preserveAspectRatio="xMidYMid meet">

<g transform="translate(0.000000,360.000000) scale(0.100000,-0.100000)"
fill="#000000" stroke="none">
<path d="M3383 2632 c-8 -5 -9 -13 -3 -22 8 -13 11 -13 22 -1 11 11 11 13 -1
6 -11 -6 -13 -4 -8 8 7 19 7 20 -10 9z"/>
<path d="M3348 2457 c3 -12 7 -16 9 -10 2 6 13 9 23 6 21 -6 27 -37 10 -48 -8
-5 -7 -11 1 -21 14 -17 5 -18 -22 -4 -17 10 -19 7 -19 -25 0 -20 -3 -34 -7
-32 -5 3 -8 -14 -7 -36 0 -34 -7 -51 -38 -88 -21 -26 -38 -56 -38 -67 0 -20
-25 -36 -41 -26 -5 3 -12 -2 -15 -10 -4 -12 -11 -13 -24 -6 -10 5 -33 7 -52 4
-26 -5 -30 -3 -18 6 12 9 12 11 1 8 -23 -6 -24 -26 -3 -32 26 -9 27 -56 2 -56
-10 0 -20 -6 -23 -12 -3 -10 -12 -9 -37 5 -17 9 -36 15 -41 11 -5 -3 -9 -1 -9
5 0 15 21 25 29 14 3 -6 17 -15 31 -22 23 -11 22 -10 -5 15 -18 16 -25 29 -18
31 7 3 9 12 6 21 -6 15 -5 16 13 2 18 -14 18 -14 5 3 -18 23 -31 22 -31 -4 0
-16 -5 -19 -22 -15 -13 3 -17 3 -10 0 6 -3 12 -10 12 -15 0 -6 -5 -7 -12 -3
-7 4 -8 3 -4 -4 4 -7 -3 -14 -18 -18 -27 -7 -57 -34 -37 -34 6 0 11 4 11 8 0
5 7 9 15 9 11 0 15 -11 15 -39 0 -26 -4 -38 -14 -38 -8 0 -16 -5 -18 -12 -3
-7 -21 -12 -44 -11 -21 0 -34 -2 -27 -4 17 -6 4 -33 -16 -33 -9 0 -23 5 -31
10 -12 8 -12 12 -2 18 8 6 2 9 -18 9 -20 0 -26 -3 -18 -9 17 -10 8 -10 -77 2
-63 10 -84 20 -85 43 0 5 4 6 8 3 8 -5 29 14 45 41 15 24 -23 6 -48 -23 -25
-29 -34 -50 -16 -40 17 11 22 -44 6 -60 -8 -9 -16 -12 -16 -7 -1 4 -4 -5 -8
-22 -6 -29 -9 -30 -74 -39 -44 -6 -67 -14 -67 -22 0 -7 -8 -18 -18 -23 -22
-12 -143 -18 -159 -8 -6 4 -22 -5 -36 -23 -19 -22 -26 -26 -31 -15 -3 8 -10
15 -16 15 -6 0 -4 -7 4 -16 9 -8 16 -23 17 -32 0 -12 3 -11 9 6 5 12 14 22 20
22 6 0 8 5 5 10 -3 6 1 10 10 10 10 0 13 5 9 12 -4 7 -3 8 4 4 15 -9 4 -34
-20 -47 -11 -6 -17 -17 -14 -27 7 -23 -18 -54 -37 -46 -13 4 -14 11 -6 31 7
19 6 29 -2 37 -9 8 -10 8 -5 -1 4 -7 -2 -14 -14 -18 -11 -4 -18 -11 -15 -16 4
-5 -5 -9 -19 -9 -20 0 -26 5 -26 21 0 41 -18 59 -60 59 -37 0 -40 -2 -40 -29
0 -16 -6 -31 -14 -34 -22 -9 -86 12 -86 28 0 8 -4 17 -10 20 -7 4 -7 -3 0 -19
5 -14 6 -26 1 -26 -5 0 -11 -14 -13 -32 -6 -40 12 -90 30 -83 8 3 21 5 31 5 9
0 26 7 37 15 19 15 19 15 -1 9 -16 -5 -17 -4 -5 5 37 27 116 7 162 -41 15 -15
33 -28 40 -28 14 0 103 80 90 80 -22 2 68 39 94 40 28 0 91 24 104 39 3 4 28
12 55 19 34 8 60 23 80 46 47 51 68 59 126 47 65 -14 145 -14 172 0 12 7 43
31 69 55 26 24 56 44 68 44 18 0 49 15 146 68 13 7 32 24 41 38 10 14 33 44
51 66 45 56 75 116 69 139 -3 11 -1 17 4 13 5 -3 9 -1 9 5 0 5 11 23 25 40 24
28 25 34 19 110 -5 62 -4 84 7 97 13 16 12 16 -8 4 -17 -11 -27 -11 -46 -3
-23 11 -24 10 -19 -10z m-168 -386 c0 -5 -9 -7 -20 -4 -11 3 -20 7 -20 9 0 2
9 4 20 4 11 0 20 -4 20 -9z"/>
<path d="M222 2410 c0 -14 2 -19 5 -12 2 6 2 18 0 25 -3 6 -5 1 -5 -13z"/>
<path d="M3262 2261 l-33 -17 26 -12 c23 -11 26 -10 23 5 -2 10 3 23 12 30 21
17 11 15 -28 -6z"/>
<path d="M3302 2257 c-8 -10 -6 -13 11 -14 12 0 16 1 9 4 -6 3 -10 9 -6 14 8
14 -2 11 -14 -4z"/>
<path d="M3202 2180 c-11 -17 -10 -21 5 -27 15 -6 15 -7 0 -12 -13 -5 -12 -8
8 -18 15 -6 27 -7 31 -2 3 5 -3 9 -13 10 -16 0 -16 1 2 9 18 8 18 9 2 9 -11 1
-15 6 -11 13 4 7 3 8 -4 4 -16 -9 -15 7 0 22 7 7 8 12 2 12 -5 0 -15 -9 -22
-20z"/>
<path d="M3243 2181 c1 -12 6 -17 15 -14 10 4 11 8 2 13 -9 6 -9 9 1 13 10 4
9 6 -3 6 -11 1 -16 -6 -15 -18z"/>
<path d="M193 2101 c-24 -39 21 -113 139 -230 21 -20 75 -73 121 -118 l84 -83
59 0 c66 0 88 9 79 32 -4 11 1 18 16 23 25 8 42 -10 35 -39 -3 -13 -2 -16 5
-9 6 6 7 22 3 37 -5 21 -12 26 -39 26 -32 0 -33 1 -31 38 1 20 5 42 9 48 4 7
-3 18 -16 27 -19 12 -24 13 -24 2 0 -8 4 -12 9 -9 9 6 10 -12 2 -43 -5 -19
-13 -23 -44 -23 -46 0 -72 9 -64 21 3 5 -1 9 -8 10 -7 1 -2 5 12 9 23 7 22 8
-10 9 -43 2 -65 14 -55 31 5 8 4 11 -2 7 -6 -4 -14 0 -17 9 -3 8 -2 12 4 9 6
-3 7 1 4 9 -3 9 -11 13 -17 9 -6 -4 -8 0 -4 10 3 9 3 16 -1 16 -25 -4 -44 17
-47 53 -1 15 -15 19 -31 10 -16 -9 -16 -10 3 -16 12 -4 24 -13 27 -21 3 -9 0
-12 -10 -8 -7 3 -14 8 -14 12 0 4 -13 15 -30 24 -25 15 -29 22 -24 50 4 21 3
28 -4 19 -7 -10 -17 -4 -41 27 -36 45 -60 51 -78 22z"/>
<path d="M2975 2111 c-3 -5 0 -13 6 -17 7 -4 9 -3 5 4 -3 5 0 13 6 15 9 4 10
6 1 6 -6 1 -14 -3 -18 -8z"/>
<path d="M306 2085 c3 -8 10 -12 15 -9 5 3 9 0 9 -5 0 -6 5 -11 11 -11 14 0 2
18 -21 30 -16 8 -18 8 -14 -5z"/>
<path d="M366 2022 c-2 -4 10 -8 26 -9 17 -1 28 1 24 4 -10 10 -44 14 -50 5z"/>
<path d="M2718 2003 c7 -3 16 -2 19 1 4 3 -2 6 -13 5 -11 0 -14 -3 -6 -6z"/>
<path d="M2768 1994 c6 -3 12 -13 12 -21 0 -13 3 -13 15 -3 12 10 18 10 29 1
9 -7 17 -8 20 -3 3 6 -6 13 -22 16 -55 14 -67 16 -54 10z"/>
<path d="M2962 1980 c0 -14 2 -19 5 -12 2 6 2 18 0 25 -3 6 -5 1 -5 -13z"/>
<path d="M2865 1970 c3 -5 11 -10 16 -10 6 0 7 5 4 10 -3 6 -11 10 -16 10 -6
0 -7 -4 -4 -10z"/>
<path d="M420 1960 c0 -14 15 -19 29 -11 9 6 7 10 -8 14 -12 3 -21 1 -21 -3z"/>
<path d="M471 1924 c0 -11 3 -14 6 -6 3 7 2 16 -1 19 -3 4 -6 -2 -5 -13z"/>
<path d="M490 1913 c0 -14 34 -43 51 -43 9 0 7 5 -6 12 -11 6 -26 18 -32 26
-7 9 -13 11 -13 5z"/>
<path d="M2558 1902 c-21 -2 -38 -7 -38 -12 0 -9 69 -4 79 5 8 8 -3 10 -41 7z"/>
<path d="M666 1888 c-17 -9 -16 -11 3 -25 23 -15 41 -10 41 12 0 18 -23 25
-44 13z m34 -20 c0 -4 -4 -8 -9 -8 -6 0 -12 4 -15 8 -3 5 1 9 9 9 8 0 15 -4
15 -9z"/>
<path d="M2462 1874 c-7 -8 -8 -14 -3 -14 10 0 25 19 20 25 -2 1 -10 -3 -17
-11z"/>
<path d="M534 1858 c-28 -6 -28 -6 6 -6 19 0 44 -3 55 -7 14 -5 16 -4 6 3 -11
8 -11 10 0 15 19 6 -31 3 -67 -5z"/>
<path d="M2418 1843 c7 -3 16 -2 19 1 4 3 -2 6 -13 5 -11 0 -14 -3 -6 -6z"/>
<path d="M2292 1820 c-24 -22 -20 -45 10 -61 13 -7 18 -7 14 -1 -3 6 0 13 6
15 9 4 10 8 3 14 -6 4 -10 18 -9 31 2 27 3 27 -24 2z m9 -14 c-9 -11 -9 -15 1
-19 7 -2 9 -8 5 -13 -13 -13 -27 18 -15 33 6 7 13 13 15 13 3 0 0 -6 -6 -14z"/>
<path d="M2545 1830 l-30 -8 33 -1 c17 0 32 4 32 9 0 6 -1 9 -2 9 -2 -1 -16
-5 -33 -9z"/>
<path d="M2015 1821 c-3 -5 0 -13 6 -17 7 -4 9 -3 5 4 -3 6 2 13 11 15 16 4
16 5 1 6 -9 0 -19 -3 -23 -8z"/>
<path d="M2050 1810 c-11 -7 -7 -9 15 -7 25 2 30 -2 36 -28 6 -28 7 -28 8 -4
2 41 -27 60 -59 39z"/>
<path d="M568 1793 c6 -2 18 -2 25 0 6 3 1 5 -13 5 -14 0 -19 -2 -12 -5z"/>
<path d="M2026 1774 c-5 -13 -17 -15 -67 -10 -54 5 -59 3 -48 -10 10 -12 10
-15 -2 -12 -8 2 -18 8 -22 13 -5 6 -7 4 -4 -5 3 -11 16 -14 55 -12 39 3 52 0
52 -10 0 -7 8 -3 19 11 12 16 21 20 25 12 4 -6 19 -11 34 -10 26 1 26 1 -5 10
-22 7 -31 14 -27 24 4 8 4 15 1 15 -3 0 -8 -7 -11 -16z"/>
<path d="M2135 1740 c-3 -5 -1 -10 4 -10 6 0 11 5 11 10 0 6 -2 10 -4 10 -3 0
-8 -4 -11 -10z"/>
<path d="M685 1606 c-6 -36 -2 -49 19 -81 15 -21 29 -50 31 -64 15 -75 31
-106 69 -132 27 -18 47 -24 62 -20 29 8 95 88 87 107 -3 9 0 14 8 12 10 -2 13
7 12 32 -2 28 -1 31 6 15 9 -19 10 -19 10 3 1 15 -5 22 -17 22 -13 0 -17 -8
-17 -32 0 -25 -4 -31 -23 -33 -13 -1 -25 2 -28 7 -3 5 -13 1 -21 -9 -8 -10
-12 -13 -9 -7 4 8 -3 11 -19 10 -17 -1 -25 -7 -25 -18 0 -10 -4 -18 -10 -18
-5 0 -10 9 -10 21 0 28 -18 59 -34 59 -24 0 -45 33 -39 62 3 15 9 25 14 22 5
-3 9 -1 9 4 0 6 -7 12 -15 16 -8 3 -15 16 -15 30 0 15 -7 25 -20 29 -16 4 -20
-2 -25 -37z m225 -185 c0 -5 10 -12 23 -14 12 -2 6 -4 -14 -3 -25 1 -35 5 -32
14 6 14 23 16 23 3z"/>
<path d="M750 1535 c0 -17 18 -19 38 -6 11 7 10 10 -3 15 -26 10 -35 7 -35 -9z"/>
<path d="M840 1528 c0 -3 9 -15 20 -28 11 -13 20 -19 20 -13 0 5 -9 18 -20 28
-11 10 -20 16 -20 13z"/>
<path d="M817 1473 c18 -28 38 -31 24 -4 -6 10 -8 20 -6 23 2 2 -4 4 -14 4
-17 0 -17 -2 -4 -23z"/>
<path d="M905 1490 c28 -12 37 -12 30 0 -3 6 -16 10 -28 9 -21 0 -21 -1 -2 -9z"/>
<path d="M2368 1404 c-4 -3 -4 -13 -1 -22 4 -8 2 -13 -3 -9 -5 3 -10 -6 -11
-21 -2 -27 -2 -27 8 -3 5 13 15 21 22 18 9 -3 13 2 12 16 -2 21 -16 33 -27 21z"/>
<path d="M721 1170 c-9 -5 -6 -9 9 -13 17 -4 20 -10 15 -29 -4 -13 -4 -20 0
-16 4 4 9 18 10 32 3 26 -14 39 -34 26z"/>
<path d="M2026 1139 c-15 -18 -20 -19 -28 -8 -8 12 -9 11 -5 -1 2 -8 12 -14
22 -12 10 2 14 -1 10 -7 -3 -6 -1 -11 4 -11 6 0 11 11 11 24 0 13 6 27 13 29
6 3 7 6 2 6 -6 1 -19 -9 -29 -20z"/>
<path d="M2074 1137 c3 -11 0 -20 -9 -23 -22 -9 -41 -80 -26 -98 9 -10 9 -20
2 -34 -17 -33 -3 -59 33 -60 31 -1 101 -31 215 -93 30 -16 65 -29 78 -29 13 0
59 -18 103 -40 44 -22 90 -40 103 -40 13 0 37 15 56 34 l33 35 -22 46 c-20 42
-24 45 -33 29 -5 -11 -10 -20 -11 -20 -1 -1 -12 -5 -25 -9 -21 -6 -23 -5 -19
13 4 15 2 19 -8 15 -8 -3 -14 -9 -14 -14 0 -6 -10 -1 -22 11 -12 11 -26 20
-30 20 -5 0 -6 4 -3 10 3 5 0 7 -9 4 -8 -3 -21 -2 -28 2 -9 6 -4 10 17 15 21
4 10 7 -42 10 -42 2 -69 0 -65 -5 3 -6 -3 -6 -14 -2 -10 5 -27 11 -36 13 -23
7 -23 23 -1 23 18 0 12 10 -9 14 -7 1 -20 6 -28 11 -8 5 -20 10 -27 11 -6 1
-19 7 -30 13 -14 8 -15 11 -3 11 10 1 8 4 -5 10 -11 4 -29 6 -40 4 -11 -3 -32
-1 -45 5 -18 7 -20 10 -7 10 25 1 23 41 -2 41 -25 0 -36 17 -22 33 7 9 7 17
-1 27 -8 12 -9 12 -4 -3z m-1 -68 c4 -16 3 -18 -9 -8 -16 13 -19 29 -5 29 5 0
11 -9 14 -21z"/>
<path d="M1253 1114 c-35 -15 -42 -24 -19 -24 8 0 24 9 37 20 28 23 25 23 -18
4z"/>
<path d="M2580 1121 c0 -5 5 -13 10 -16 6 -3 10 -2 10 4 0 5 -4 13 -10 16 -5
3 -10 2 -10 -4z"/>
<path d="M1300 1100 c0 -11 2 -20 4 -20 2 0 6 9 9 20 3 11 1 20 -4 20 -5 0 -9
-9 -9 -20z"/>
<path d="M974 1095 c21 -16 139 -17 129 -2 -3 5 -29 5 -58 2 -34 -5 -55 -3
-59 4 -4 6 -13 11 -19 11 -7 0 -3 -7 7 -15z"/>
<path d="M900 1096 c0 -2 9 -6 20 -9 11 -3 20 -1 20 4 0 5 -9 9 -20 9 -11 0
-20 -2 -20 -4z"/>
<path d="M1165 1074 c20 -17 31 -21 34 -13 4 14 -26 39 -48 39 -11 0 -6 -9 14
-26z"/>
<path d="M950 1080 c0 -5 5 -10 11 -10 5 0 7 5 4 10 -3 6 -8 10 -11 10 -2 0
-4 -4 -4 -10z"/>
<path d="M2180 1069 c-14 -11 -20 -18 -13 -15 6 3 19 3 29 -1 16 -6 16 -7 -2
-15 -14 -6 -13 -7 6 -2 14 3 33 6 43 7 16 1 17 3 3 13 -9 6 -13 14 -9 18 4 4
-1 4 -11 0 -14 -5 -17 -4 -12 4 11 19 -6 14 -34 -9z m40 -9 c8 -5 11 -10 5
-10 -5 0 -17 5 -25 10 -8 5 -10 10 -5 10 6 0 17 -5 25 -10z"/>
<path d="M869 1078 c-11 -37 3 -60 24 -39 9 9 8 11 -6 5 -22 -8 -19 18 3 28
12 5 12 7 -2 7 -10 1 -18 0 -19 -1z"/>
<path d="M965 1060 c-13 -5 -14 -9 -5 -9 8 0 24 4 35 9 13 5 14 9 5 9 -8 0
-24 -4 -35 -9z"/>
<path d="M706 1033 c9 -36 14 -42 14 -15 0 16 6 22 22 22 27 0 21 5 -15 14
-26 6 -27 5 -21 -21z"/>
<path d="M810 1050 c-14 -4 -20 -8 -14 -9 7 -1 11 -9 10 -18 0 -10 6 -18 14
-18 9 0 14 8 13 20 -1 11 4 23 10 27 15 10 0 9 -33 -2z m20 -30 c0 -5 -4 -10
-10 -10 -5 0 -10 5 -10 10 0 6 5 10 10 10 6 0 10 -4 10 -10z"/>
<path d="M1271 1053 c4 -22 -3 -33 -18 -33 -15 0 -16 2 -3 10 9 6 10 10 3 10
-7 0 -16 -7 -21 -16 -7 -13 -29 -18 -98 -21 -110 -5 -118 -5 -177 3 -42 5 -53
2 -90 -22 -23 -15 -60 -30 -82 -34 -23 -3 -40 -10 -39 -17 1 -7 2 -31 3 -53 1
-39 2 -40 39 -40 21 0 60 10 88 23 44 21 62 24 191 23 81 -1 143 3 143 8 0 5
3 6 6 3 11 -10 60 23 76 52 21 36 34 111 17 94 -18 -18 -30 -16 -23 2 4 8 1
15 -5 15 -6 0 -10 -3 -10 -7z"/>
<path d="M905 1025 c-39 -14 -40 -14 -5 -8 41 7 82 22 60 22 -8 0 -33 -7 -55
-14z"/>
<path d="M2128 1033 c6 -2 18 -2 25 0 6 3 1 5 -13 5 -14 0 -19 -2 -12 -5z"/>
<path d="M2247 1018 c2 -5 -1 -8 -6 -8 -6 0 -11 -5 -11 -10 0 -6 11 -3 25 6
25 17 40 13 40 -9 0 -7 10 -12 21 -13 12 -1 26 -4 33 -8 6 -4 11 -2 11 3 0 6
-6 11 -12 12 -7 0 -3 4 10 9 12 5 30 7 40 3 14 -5 15 -4 4 8 -10 11 -19 11
-43 2 -31 -12 -59 -8 -59 8 0 4 -13 7 -29 6 -16 -1 -27 -5 -24 -9z"/>
<path d="M2408 993 c-21 -5 -24 -23 -4 -23 8 0 16 7 20 15 3 8 4 14 3 14 -1
-1 -10 -3 -19 -6z"/>
<path d="M2648 968 c6 -6 18 -8 28 -6 14 3 12 5 -9 10 -19 3 -25 2 -19 -4z"/>
<path d="M2430 960 c0 -6 6 -10 13 -10 7 0 23 -9 35 -20 12 -12 22 -16 22 -10
0 5 8 10 18 10 14 0 15 -2 2 -10 -13 -8 -13 -10 2 -10 9 0 18 -6 21 -12 2 -8
8 -9 13 -4 5 5 4 11 -4 13 -6 3 -10 8 -7 13 3 5 -5 12 -17 16 -13 4 -26 11
-30 17 -8 13 -68 20 -68 7z"/>
<path d="M2615 960 c-3 -5 -1 -10 4 -10 6 0 11 5 11 10 0 6 -2 10 -4 10 -3 0
-8 -4 -11 -10z"/>
<path d="M2607 929 c7 -7 15 -10 18 -7 3 3 -2 9 -12 12 -14 6 -15 5 -6 -5z"/>
<path d="M2568 923 c7 -3 16 -2 19 1 4 3 -2 6 -13 5 -11 0 -14 -3 -6 -6z"/>
<path d="M1550 899 c-12 -8 -10 -9 8 -4 12 3 22 2 22 -3 0 -5 7 -9 16 -9 14 0
14 2 -2 14 -21 16 -25 16 -44 2z"/>
<path d="M2023 895 c-3 -9 -3 -18 -1 -21 3 -3 8 4 11 16 6 23 -1 27 -10 5z"/>
<path d="M1267 884 c-3 -3 -3 -13 0 -22 5 -11 2 -14 -8 -10 -12 5 -16 -3 -17
-36 -2 -40 -2 -41 15 -20 10 12 25 24 33 27 12 4 11 6 -2 6 -19 1 -25 21 -7
21 8 0 8 4 0 14 -10 11 -8 15 6 19 14 4 14 5 2 6 -9 0 -18 -2 -22 -5z"/>
<path d="M1318 878 c-8 -19 2 -23 69 -31 27 -3 31 -1 21 11 -8 9 -22 12 -44 7
-26 -4 -33 -2 -36 12 -3 17 -4 17 -10 1z"/>
<path d="M1624 881 c4 -6 17 -11 30 -11 12 0 39 -16 60 -35 43 -39 48 -42 40
-21 -3 9 3 17 16 21 12 4 19 9 17 12 -3 2 -15 0 -26 -7 -18 -9 -27 -7 -54 14
-36 27 -95 47 -83 27z"/>
<path d="M2510 881 c0 -6 5 -13 10 -16 6 -3 10 1 10 9 0 9 -4 16 -10 16 -5 0
-10 -4 -10 -9z"/>
<path d="M1478 863 c-6 -7 -8 -17 -4 -20 4 -4 11 -1 16 7 7 10 10 11 10 3 0
-7 4 -13 8 -13 4 0 8 8 8 18 0 22 -21 25 -38 5z"/>
<path d="M1823 871 l-22 -6 24 -12 c21 -9 27 -8 35 6 10 19 2 22 -37 12z"/>
<path d="M1358 808 c-10 -10 -14 -18 -9 -18 6 0 13 5 16 10 9 14 26 12 23 -2
-2 -7 14 -17 35 -22 37 -10 46 -19 27 -31 -6 -4 -18 -1 -27 7 -9 7 -36 18 -60
24 -45 11 -45 11 -58 -19 -17 -40 -3 -70 41 -96 41 -25 121 -19 172 12 41 24
108 18 152 -13 22 -15 44 -20 99 -20 58 0 74 -4 89 -21 16 -16 29 -20 68 -17
46 3 50 5 68 43 11 22 22 58 26 80 4 22 11 48 15 58 5 12 3 17 -9 17 -8 0 -18
-11 -22 -25 -5 -20 -11 -24 -27 -19 -16 5 -19 3 -13 -11 9 -24 -11 -45 -44
-45 -46 0 -60 10 -60 41 0 22 -6 32 -26 39 -32 12 -44 13 -25 1 11 -7 4 -12
-26 -21 -37 -11 -47 -10 -130 24 -95 38 -107 41 -99 28 7 -12 -61 -35 -75 -26
-8 4 -9 3 -5 -4 9 -15 7 -15 -32 -1 -20 7 -29 15 -25 22 3 7 2 9 -2 4 -5 -4
-15 -1 -24 6 -14 12 -19 11 -33 -5z"/>
<path d="M1439 817 c6 -8 8 -17 4 -20 -3 -4 -1 -7 5 -7 14 0 14 2 6 24 -3 9
-11 16 -16 16 -7 0 -6 -5 1 -13z"/>
<path d="M1970 812 c0 -5 7 -9 15 -9 8 0 12 4 9 9 -3 4 -9 8 -15 8 -5 0 -9 -4
-9 -8z"/>
<path d="M1478 803 c7 -3 16 -2 19 1 4 3 -2 6 -13 5 -11 0 -14 -3 -6 -6z"/>
<path d="M1713 797 c6 -15 3 -17 -16 -12 -20 5 -20 5 3 -9 27 -17 55 -22 30
-6 -12 8 -8 10 15 11 21 1 24 3 10 6 -11 3 -26 10 -34 17 -12 9 -13 8 -8 -7z"/>
<path d="M1872 750 c0 -19 2 -27 5 -17 2 9 2 25 0 35 -3 9 -5 1 -5 -18z"/>
</g>
</svg>
